<?xml version="1.0" encoding="UTF-8"?>
<svg width="800" height="400" viewBox="0 0 800 400" xmlns="http://www.w3.org/2000/svg">
  <!-- Background gradient -->
  <defs>
    <linearGradient id="bg-gradient" x1="0%" y1="0%" x2="100%" y2="100%">
      <stop offset="0%" style="stop-color:#4158D0;stop-opacity:1" />
      <stop offset="46%" style="stop-color:#C850C0;stop-opacity:1" />
      <stop offset="100%" style="stop-color:#FFCC70;stop-opacity:1" />
    </linearGradient>
  </defs>
  
  <!-- Background -->
  <rect width="800" height="400" fill="url(#bg-gradient)"/>
  
  <!-- Abstract pattern -->
  <g opacity="0.15" fill="#ffffff">
    <circle cx="100" cy="100" r="80"/>
    <circle cx="700" cy="300" r="120"/>
    <circle cx="400" cy="50" r="60"/>
    <circle cx="250" cy="350" r="40"/>
    <circle cx="650" cy="120" r="70"/>
  </g>
  
  <!-- Document icon -->
  <g transform="translate(350, 150)">
    <rect x="-50" y="-70" width="100" height="140" rx="8" fill="#ffffff" opacity="0.9"/>
    <rect x="-35" y="-55" width="70" height="10" rx="2" fill="#4158D0" opacity="0.8"/>
    <rect x="-35" y="-35" width="70" height="5" rx="2" fill="#4158D0" opacity="0.6"/>
    <rect x="-35" y="-25" width="70" height="5" rx="2" fill="#4158D0" opacity="0.6"/>
    <rect x="-35" y="-15" width="70" height="5" rx="2" fill="#4158D0" opacity="0.6"/>
    <rect x="-35" y="-5" width="40" height="5" rx="2" fill="#4158D0" opacity="0.6"/>
    <rect x="-35" y="15" width="70" height="10" rx="2" fill="#4158D0" opacity="0.8"/>
    <rect x="-35" y="35" width="70" height="10" rx="2" fill="#4158D0" opacity="0.8"/>
  </g>
  
  <!-- Text -->
  <text x="400" y="250" text-anchor="middle" fill="#ffffff" font-family="Arial, sans-serif" font-size="24" font-weight="bold">HarryTien's Blog</text>
  <text x="400" y="280" text-anchor="middle" fill="#ffffff" font-family="Arial, sans-serif" font-size="16" opacity="0.8">Network Security • Technology • Coding</text>
</svg>